<?xml version="1.0" encoding="UTF-8" standalone="no"?>
<!DOCTYPE svg PUBLIC "-//W3C//DTD SVG 1.1//EN" "http://www.w3.org/Graphics/SVG/1.1/DTD/svg11.dtd">
<svg version="1.1" xmlns="http://www.w3.org/2000/svg" xmlns:xlink="http://www.w3.org/1999/xlink" preserveAspectRatio="xMidYMid meet" viewBox="0 0 640 640" width="640" height="640"><defs><path d="M222.24 50.73C196.36 76.6 183.75 110.36 182.72 144.33C130.65 149.1 89.6 192.48 89.6 245.77C89.6 302.23 135.54 348.17 192 348.17C216.06 348.17 408.58 348.17 432.64 348.17C497.5 348.17 550.4 295.26 550.4 230.41C550.4 172.82 508.56 125.12 453.76 115.05C447.92 91.51 436.14 69.11 417.76 50.73C390.83 23.8 355.36 10.25 320 10.25C284.64 10.25 249.17 23.8 222.24 50.73ZM396 72.33C412.52 88.85 422.37 109.31 425.92 130.73C427.07 137.68 432.81 142.96 439.84 143.53C484.57 147.21 519.68 184.61 519.68 230.41C519.68 278.66 480.89 317.45 432.64 317.45C408.58 317.45 216.06 317.45 192 317.45C152.02 317.45 120.32 285.74 120.32 245.77C120.32 205.79 152.02 174.09 192 174.09C192.56 174.09 197.04 174.09 197.6 174.09C206.08 174.12 212.98 167.26 213.01 158.78C213.01 158.33 213 157.89 212.96 157.45C210.44 127 220.68 95.65 244 72.33C265.06 51.27 292.46 40.97 320 40.97C347.54 40.97 374.94 51.27 396 72.33ZM183.84 371.21C181.79 374.76 165.41 403.17 163.36 406.73C159.12 414.07 161.61 423.45 168.96 427.69C176.31 431.93 185.68 429.43 189.92 422.09C191.97 418.53 208.35 390.12 210.4 386.57C214.64 379.22 212.15 369.85 204.8 365.61C202.04 364.02 198.95 363.32 196 363.53C191.08 363.87 186.49 366.62 183.84 371.21ZM270.88 371.21C268.83 374.76 252.45 403.17 250.4 406.73C246.16 414.07 248.65 423.45 256 427.69C263.35 431.93 272.72 429.43 276.96 422.09C279.01 418.53 295.39 390.12 297.44 386.57C301.68 379.22 299.19 369.85 291.84 365.61C289.08 364.02 285.99 363.32 283.04 363.53C278.12 363.87 273.53 366.62 270.88 371.21ZM357.92 371.21C355.87 374.76 339.49 403.17 337.44 406.73C333.2 414.07 335.69 423.45 343.04 427.69C350.39 431.93 359.76 429.43 364 422.09C366.05 418.53 382.43 390.12 384.48 386.57C388.72 379.22 386.23 369.85 378.88 365.61C376.12 364.02 373.03 363.32 370.08 363.53C365.16 363.87 360.57 366.62 357.92 371.21ZM444.96 371.21C442.91 374.76 426.53 403.17 424.48 406.73C420.24 414.07 422.73 423.45 430.08 427.69C437.43 431.93 446.8 429.43 451.04 422.09C453.09 418.53 469.47 390.12 471.52 386.57C475.76 379.22 473.27 369.85 465.92 365.61C463.16 364.02 460.07 363.32 457.12 363.53C452.2 363.87 447.61 366.62 444.96 371.21ZM204.32 443.21C202.27 446.76 185.89 475.17 183.84 478.73C179.6 486.07 182.09 495.45 189.44 499.69C196.79 503.93 206.16 501.43 210.4 494.09C212.45 490.53 228.83 462.12 230.88 458.57C235.12 451.22 232.63 441.85 225.28 437.61C222.52 436.02 219.43 435.48 216.48 435.69C211.56 436.04 206.97 438.62 204.32 443.21ZM291.36 443.21C289.31 446.76 272.93 475.17 270.88 478.73C266.64 486.07 269.13 495.45 276.48 499.69C283.83 503.93 293.2 501.43 297.44 494.09C299.49 490.53 315.87 462.12 317.92 458.57C322.16 451.22 319.67 441.85 312.32 437.61C309.56 436.02 306.47 435.48 303.52 435.69C298.6 436.04 294.01 438.62 291.36 443.21ZM378.4 443.21C376.35 446.76 359.97 475.17 357.92 478.73C353.68 486.07 356.17 495.45 363.52 499.69C370.87 503.93 380.24 501.43 384.48 494.09C386.53 490.53 402.91 462.12 404.96 458.57C409.2 451.22 406.71 441.85 399.36 437.61C396.6 436.02 393.51 435.48 390.56 435.69C385.64 436.04 381.05 438.62 378.4 443.21Z" id="baGmCSWZU"></path></defs><g><g><g><use xlink:href="#baGmCSWZU" opacity="1" fill="#000000" fill-opacity="1"></use><g><use xlink:href="#baGmCSWZU" opacity="1" fill-opacity="0" stroke="#000000" stroke-width="1" stroke-opacity="0"></use></g></g></g></g></svg>