<?xml version="1.0" encoding="UTF-8" standalone="no"?>
<!DOCTYPE svg PUBLIC "-//W3C//DTD SVG 1.1//EN" "http://www.w3.org/Graphics/SVG/1.1/DTD/svg11.dtd">
<svg version="1.1" xmlns="http://www.w3.org/2000/svg" xmlns:xlink="http://www.w3.org/1999/xlink" preserveAspectRatio="xMidYMid meet" viewBox="0 0 640 640" width="640" height="640"><defs><path d="M334.23 65.65L305.78 65.65C305.78 238.15 305.78 333.98 305.78 353.15C285.12 359.27 270.04 378.37 270.04 401.02C270.04 428.6 292.41 450.99 320.01 450.99C347.6 450.99 369.97 428.61 369.97 401.02C369.96 378.37 354.89 359.27 334.23 353.13C334.23 314.8 334.23 218.97 334.23 65.65Z" id="j4rjsmQI7C"></path><path d="M369.96 72.13C369.96 44.58 347.55 22.17 320 22.17C298.3 22.17 279.83 36.1 272.96 55.48C277.49 55.56 281.15 59.25 281.15 63.8C281.15 68.39 277.42 72.13 272.83 72.13C272.64 72.13 271.71 72.13 270.04 72.13L270.04 110.98C271.71 110.98 272.64 110.98 272.82 110.98C277.42 110.98 281.15 114.7 281.15 119.31C281.15 123.91 277.42 127.63 272.82 127.63C272.64 127.63 271.71 127.63 270.04 127.63L270.04 166.49C271.71 166.49 272.64 166.49 272.82 166.49C277.42 166.49 281.15 170.22 281.15 174.82C281.15 179.42 277.42 183.15 272.82 183.15C272.64 183.15 271.71 183.15 270.04 183.15L270.04 222C271.71 222 272.64 222 272.82 222C277.42 222 281.15 225.73 281.15 230.32C281.15 234.93 277.42 238.66 272.82 238.66C272.64 238.66 271.71 238.66 270.04 238.66L270.04 277.51C271.71 277.51 272.64 277.51 272.82 277.51C277.42 277.51 281.15 281.23 281.15 285.84C281.15 290.44 277.42 294.16 272.82 294.16C272.64 294.16 271.71 294.16 270.04 294.16C270.04 314.23 270.04 325.38 270.04 327.6C245.92 344.06 231.18 371.63 231.18 401.02C231.18 449.99 271.03 489.83 319.99 489.83C368.96 489.83 408.81 449.99 408.81 401.02C408.81 371.62 394.08 344.05 369.96 327.6C369.96 276.5 369.96 97.67 369.96 72.13ZM253.39 401.02C253.39 377.33 266.16 355.23 286.7 343.34C287.07 343.13 288.92 342.06 292.24 340.13C292.24 179.33 292.24 89.99 292.24 72.13C292.24 56.82 304.7 44.37 320 44.37C335.3 44.37 347.75 56.83 347.75 72.13C347.75 89.99 347.75 179.33 347.75 340.13C351.07 342.06 352.92 343.13 353.29 343.34C373.84 355.23 386.61 377.33 386.61 401.02C386.61 437.75 356.73 467.62 320 467.62C283.28 467.62 253.39 437.75 253.39 401.02Z" id="c31SWmc4a3"></path><path d="M131.18 75.35L231.18 75.35L231.18 100.35L131.18 100.35L131.18 75.35Z" id="baE0KmpJB"></path></defs><g><g><g><use xlink:href="#j4rjsmQI7C" opacity="1" fill="#000000" fill-opacity="1"></use><g><use xlink:href="#j4rjsmQI7C" opacity="1" fill-opacity="0" stroke="#000000" stroke-width="1" stroke-opacity="0"></use></g></g><g><use xlink:href="#c31SWmc4a3" opacity="1" fill="#000000" fill-opacity="1"></use><g><use xlink:href="#c31SWmc4a3" opacity="1" fill-opacity="0" stroke="#000000" stroke-width="1" stroke-opacity="0"></use></g></g><g><use xlink:href="#baE0KmpJB" opacity="1" fill="#000000" fill-opacity="1"></use></g></g></g></svg>