<?xml version="1.0" encoding="UTF-8" standalone="no"?>
<!DOCTYPE svg PUBLIC "-//W3C//DTD SVG 1.1//EN" "http://www.w3.org/Graphics/SVG/1.1/DTD/svg11.dtd">
<svg version="1.1" xmlns="http://www.w3.org/2000/svg" xmlns:xlink="http://www.w3.org/1999/xlink" preserveAspectRatio="xMidYMid meet" viewBox="0 0 640 640" width="640" height="640"><defs><path d="M436.91 240.8C421.97 207.69 402.8 172.04 384.67 140.44C356 90.36 329.99 50.4 327.56 46.71C324.77 42.54 319.13 41.41 314.96 44.19C313.96 44.86 313.1 45.71 312.44 46.71C310.01 50.4 284 90.36 255.33 140.44C247.68 153.69 239.95 167.64 232.39 181.82C232.2 182.13 232.07 182.49 231.89 182.8C202.28 238.18 176 296.8 176 329.96C176 406.8 240.57 469.33 320 469.33C399.43 469.33 464 406.8 464 329.96C464 308.84 453.29 277.33 437.85 242.89C437.58 242.18 437.26 241.48 436.91 240.8ZM276.08 140.44C294.26 109.2 310.82 82.67 320 68.18C329.18 82.67 345.74 109.2 363.92 140.44C381.69 171.07 401.04 206.22 416.48 238.98C419.13 244.62 421.7 250.22 424.08 255.69C415.76 257.41 407.29 258.27 398.8 258.27C367.05 258.35 336.53 246.06 313.7 224C295.4 206.23 271.15 195.9 245.66 195.02C248.72 189.29 251.78 183.6 254.88 177.96C261.95 165.02 269.15 152.4 276.08 140.44Z" id="e1crE7qZyp"></path><path d="M124.91 80L224.91 80L224.91 105L124.91 105L124.91 80Z" id="a3HuQZDiQf"></path><path d="M163.5 42.67L188.5 42.67L188.5 142.67L163.5 142.67L163.5 42.67Z" id="a2kyksDE3X"></path></defs><g><g><g><use xlink:href="#e1crE7qZyp" opacity="1" fill="#000000" fill-opacity="1"></use><g><use xlink:href="#e1crE7qZyp" opacity="1" fill-opacity="0" stroke="#000000" stroke-width="1" stroke-opacity="0"></use></g></g><g><use xlink:href="#a3HuQZDiQf" opacity="1" fill="#000000" fill-opacity="1"></use></g><g><use xlink:href="#a2kyksDE3X" opacity="1" fill="#000000" fill-opacity="1"></use></g></g></g></svg>