<?xml version="1.0" encoding="UTF-8" standalone="no"?>
<!DOCTYPE svg PUBLIC "-//W3C//DTD SVG 1.1//EN" "http://www.w3.org/Graphics/SVG/1.1/DTD/svg11.dtd">
<svg version="1.1" xmlns="http://www.w3.org/2000/svg" xmlns:xlink="http://www.w3.org/1999/xlink" preserveAspectRatio="xMidYMid meet" viewBox="0 0 640 640" width="640" height="640"><defs><path d="M327.28 46.71C324.78 42.69 319.49 41.46 315.47 43.96C314.35 44.65 313.41 45.6 312.72 46.71C308.91 52.8 243.65 156.76 206.6 242.67C194.12 271.56 184.84 298.36 182.16 318.76C182.07 319.07 182.03 319.4 182.03 319.73C181.57 323.12 181.34 326.54 181.33 329.96C180.91 406.5 242.62 468.91 319.17 469.33C385.36 469.7 442.57 423.22 455.76 358.36C455.86 357.97 455.93 357.59 455.98 357.2C457.78 348.23 458.68 339.1 458.67 329.96C458.67 308.8 448.31 277.2 433.4 242.67C396.35 156.76 331.09 52.8 327.28 46.71ZM320 68.18C337.85 97.42 384.57 175.64 414.55 242.67C430.24 277.69 441.33 309.69 441.33 329.96C441.34 336.73 440.78 343.5 439.64 350.18C401.68 369.01 355.92 361.42 326.07 331.33C293.79 298.71 245.22 288.35 202.44 304.98C208.36 283.6 216.06 262.76 225.45 242.67C255.43 175.64 302.15 97.42 320 68.18Z" id="bSQJcze3V"></path><path d="M131.33 63.34L231.33 63.34L231.33 88.34L131.33 88.34L131.33 63.34Z" id="du6eWKrfD"></path></defs><g><g><g><use xlink:href="#bSQJcze3V" opacity="1" fill="#000000" fill-opacity="1"></use><g><use xlink:href="#bSQJcze3V" opacity="1" fill-opacity="0" stroke="#000000" stroke-width="1" stroke-opacity="0"></use></g></g><g><use xlink:href="#du6eWKrfD" opacity="1" fill="#000000" fill-opacity="1"></use></g></g></g></svg>