<?xml version="1.0" encoding="UTF-8" standalone="no"?>
<!DOCTYPE svg PUBLIC "-//W3C//DTD SVG 1.1//EN" "http://www.w3.org/Graphics/SVG/1.1/DTD/svg11.dtd">
<svg version="1.1" xmlns="http://www.w3.org/2000/svg" xmlns:xlink="http://www.w3.org/1999/xlink" preserveAspectRatio="xMidYMid meet" viewBox="0 0 640 640" width="640" height="640"><defs><path d="M168.01 264C163.59 264 160.01 267.58 160.01 272C160.01 276.42 163.59 280 168.01 280C168.81 280 175.21 280 176.01 280C180.43 280 184.01 276.42 184.01 272C184.01 267.58 180.43 264 176.01 264C174.41 264 169.61 264 168.01 264Z" id="d4KsVWjY2D"></path><path d="M136 280C140.42 280 144 276.42 144 272C144 267.59 140.42 264 136 264C133.6 264 114.4 264 112 264C107.58 264 104 267.59 104 272C104 276.42 107.58 280 112 280C116.8 280 133.6 280 136 280Z" id="k1cUA7uNsO"></path><path d="M152 216C156.42 216 160 212.42 160 208C160 203.58 156.42 200 152 200C148 200 116 200 112 200C107.58 200 104 203.58 104 208C104 212.42 107.58 216 112 216C120 216 148 216 152 216Z" id="c803hFDBtC"></path><path d="M216.01 232C211.59 232 208.01 235.58 208.01 240C208.01 244.42 211.59 248 216.01 248C216.81 248 223.21 248 224.01 248C228.43 248 232.01 244.42 232.01 240C232.01 235.58 228.43 232 224.01 232C222.41 232 217.61 232 216.01 232Z" id="go7Wgwf68"></path><path d="M184.01 248C188.43 248 192.01 244.42 192.01 240C192.01 235.58 188.43 232 184.01 232C176.81 232 119.2 232 112 232C107.58 232 104 235.58 104 240C104 244.42 107.58 248 112 248C126.4 248 176.81 248 184.01 248Z" id="d6VcIiEYqu"></path><path d="M376.02 216C388.78 216.05 401.02 210.99 410.02 201.96C428.79 183.19 428.79 152.77 410.02 134C391.25 115.23 360.83 115.23 342.06 134C341.81 134.25 341.57 134.52 341.36 134.8C332.77 143.72 327.99 155.62 328.03 167.99C328.03 172.41 331.61 175.99 336.03 175.99C340.44 175.99 344.03 172.41 344.03 167.99C344 159.5 347.38 151.36 353.4 145.37C353.59 145.17 353.78 144.97 353.96 144.75C366.79 132.55 387.08 133.08 399.27 145.91C411.24 158.52 410.98 178.37 398.69 190.66C392.68 196.67 384.52 200.04 376.02 200C356.82 200 203.21 200 184.01 200C179.59 200 176.01 203.58 176.01 208C176.01 212.42 179.59 216 184.01 216C184.01 216 356.82 216 376.02 216Z" id="a4KPx593a"></path><path d="M454.07 166C453.82 166.25 453.58 166.52 453.37 166.8C444.78 175.72 440 187.62 440.04 200C440.04 204.41 443.62 208 448.04 208C452.46 208 456.04 204.41 456.04 200C456.01 191.51 459.39 183.36 465.4 177.37C465.6 177.18 465.79 176.97 465.96 176.75C478.8 164.56 499.09 165.08 511.28 177.91C523.25 190.52 522.99 210.37 510.7 222.66C504.69 228.67 496.53 232.04 488.04 232C464.84 232 279.22 232 256.02 232C251.6 232 248.02 235.58 248.02 240C248.02 244.42 251.6 248 256.02 248C279.22 248 464.84 248 488.04 248C500.79 248.05 513.03 242.99 522.03 233.96C540.67 215.13 540.65 184.81 522 166C503.19 147.36 472.88 147.36 454.07 166Z" id="a2bGNydDET"></path><path d="M208.01 264C203.59 264 200.01 267.58 200.01 272C200.01 276.42 203.59 280 208.01 280C232.81 280 431.23 280 456.03 280C464.53 279.96 472.68 283.32 478.68 289.32C491.21 301.83 491.22 322.13 478.71 334.65C466.43 346.95 446.59 347.22 433.98 335.26C433.8 335.04 433.61 334.83 433.41 334.63C427.39 328.64 424.01 320.49 424.04 312C424.04 307.58 420.46 304 416.04 304C411.62 304 408.04 307.58 408.04 312C408 324.37 412.78 336.28 421.36 345.19C421.58 345.48 421.81 345.75 422.07 346C440.82 364.79 471.24 364.82 490.03 346.08C508.82 327.33 508.86 296.9 490.11 278.12C481.08 269.06 468.82 263.98 456.03 264C406.43 264 232.81 264 208.01 264Z" id="c4Gaj32g10"></path><path d="M112 296.01C107.58 296.01 104 299.59 104 304.01C104 308.42 107.58 312.01 112 312.01C135.2 312.01 320.82 312.01 344.02 312.01C352.51 311.97 360.67 315.32 366.67 321.33C379.2 333.84 379.21 354.13 366.7 366.66C354.42 378.96 334.57 379.22 321.96 367.26C321.78 367.04 321.6 366.84 321.39 366.63C315.37 360.65 312 352.5 312.02 344.01C312.02 339.59 308.44 336.01 304.02 336.01C299.61 336.01 296.02 339.59 296.02 344.01C295.99 356.38 300.77 368.28 309.35 377.19C309.56 377.48 309.8 377.75 310.06 378.01C328.8 396.79 359.23 396.83 378.02 378.08C396.81 359.34 396.84 328.91 378.1 310.12C369.07 301.07 356.81 295.99 344.02 296.01C344.02 296.01 135.2 296.01 112 296.01Z" id="bgdXQj9T1"></path></defs><g><g><g><use xlink:href="#d4KsVWjY2D" opacity="1" fill="#000000" fill-opacity="1"></use><g><use xlink:href="#d4KsVWjY2D" opacity="1" fill-opacity="0" stroke="#000000" stroke-width="1" stroke-opacity="0"></use></g></g><g><use xlink:href="#k1cUA7uNsO" opacity="1" fill="#000000" fill-opacity="1"></use><g><use xlink:href="#k1cUA7uNsO" opacity="1" fill-opacity="0" stroke="#000000" stroke-width="1" stroke-opacity="0"></use></g></g><g><use xlink:href="#c803hFDBtC" opacity="1" fill="#000000" fill-opacity="1"></use><g><use xlink:href="#c803hFDBtC" opacity="1" fill-opacity="0" stroke="#000000" stroke-width="1" stroke-opacity="0"></use></g></g><g><use xlink:href="#go7Wgwf68" opacity="1" fill="#000000" fill-opacity="1"></use><g><use xlink:href="#go7Wgwf68" opacity="1" fill-opacity="0" stroke="#000000" stroke-width="1" stroke-opacity="0"></use></g></g><g><use xlink:href="#d6VcIiEYqu" opacity="1" fill="#000000" fill-opacity="1"></use><g><use xlink:href="#d6VcIiEYqu" opacity="1" fill-opacity="0" stroke="#000000" stroke-width="1" stroke-opacity="0"></use></g></g><g><use xlink:href="#a4KPx593a" opacity="1" fill="#000000" fill-opacity="1"></use><g><use xlink:href="#a4KPx593a" opacity="1" fill-opacity="0" stroke="#000000" stroke-width="1" stroke-opacity="0"></use></g></g><g><use xlink:href="#a2bGNydDET" opacity="1" fill="#000000" fill-opacity="1"></use><g><use xlink:href="#a2bGNydDET" opacity="1" fill-opacity="0" stroke="#000000" stroke-width="1" stroke-opacity="0"></use></g></g><g><use xlink:href="#c4Gaj32g10" opacity="1" fill="#000000" fill-opacity="1"></use><g><use xlink:href="#c4Gaj32g10" opacity="1" fill-opacity="0" stroke="#000000" stroke-width="1" stroke-opacity="0"></use></g></g><g><use xlink:href="#bgdXQj9T1" opacity="1" fill="#000000" fill-opacity="1"></use><g><use xlink:href="#bgdXQj9T1" opacity="1" fill-opacity="0" stroke="#000000" stroke-width="1" stroke-opacity="0"></use></g></g></g></g></svg>